<svg xmlns="http://www.w3.org/2000/svg" xmlns:xlink="http://www.w3.org/1999/xlink" width="500" zoomAndPan="magnify" viewBox="0 0 375 374.999991" height="500" preserveAspectRatio="xMidYMid meet" version="1.0"><defs><g/><clipPath id="116ea9d261"><path d="M 76.386719 83.640625 L 294.636719 83.640625 L 294.636719 301.890625 L 76.386719 301.890625 Z M 76.386719 83.640625 " clip-rule="nonzero"/></clipPath><clipPath id="afb68fc11f"><path d="M 69 151 L 102 151 L 102 174 L 69 174 Z M 69 151 " clip-rule="nonzero"/></clipPath><clipPath id="a6e6f110a9"><path d="M 68.375 152.425781 L 90.835938 141.140625 L 102.832031 165.007812 L 80.367188 176.296875 Z M 68.375 152.425781 " clip-rule="nonzero"/></clipPath><clipPath id="6b82253804"><path d="M 74.472656 152.289062 C 87.023438 168.738281 95.460938 160.484375 98.3125 160.300781 C 99.347656 160.226562 100.132812 160.546875 100.597656 161.117188 C 101.097656 161.757812 101.316406 163.609375 100.890625 164.359375 C 100.496094 165.003906 99.429688 165.539062 98.714844 165.542969 C 98.003906 165.542969 96.859375 165.046875 96.464844 164.441406 C 96.039062 163.765625 96.105469 161.945312 96.566406 161.265625 C 96.996094 160.695312 98.097656 160.230469 98.847656 160.300781 C 99.597656 160.371094 100.527344 160.972656 100.917969 161.578125 C 101.3125 162.183594 101.5625 163.21875 101.03125 164.109375 C 99.644531 166.503906 88.351562 171.730469 84.820312 172.703125 C 83.253906 173.132812 82.363281 173.492188 81.183594 172.921875 C 79.113281 172 76.894531 167.761719 75.035156 164.769531 C 73.03125 161.492188 70.203125 156.039062 69.878906 153.972656 C 69.734375 153.152344 69.804688 152.761719 70.085938 152.261719 C 70.371094 151.761719 70.90625 151.222656 71.476562 151.117188 C 72.226562 151.007812 74.472656 152.289062 74.472656 152.289062 " clip-rule="nonzero"/></clipPath></defs><g clip-path="url(#116ea9d261)"><path fill="#004aad" d="M 185.535156 301.9375 C 125.234375 301.9375 76.386719 252.753906 76.386719 192.789062 C 76.386719 132.824219 125.234375 83.640625 185.535156 83.640625 C 245.835938 83.640625 294.683594 132.488281 294.683594 192.789062 C 294.683594 253.089844 245.5 301.9375 185.535156 301.9375 Z M 185.535156 90.378906 C 128.941406 90.378906 83.125 136.195312 83.125 192.789062 C 83.125 249.382812 128.941406 295.199219 185.535156 295.199219 C 242.132812 295.199219 287.945312 249.382812 287.945312 192.789062 C 287.945312 136.195312 241.792969 90.378906 185.535156 90.378906 Z M 185.535156 90.378906 " fill-opacity="1" fill-rule="nonzero"/></g><path stroke-linecap="butt" transform="matrix(0, -0.75, 0.75, 0, 183.284304, 192.787823)" fill="none" stroke-linejoin="miter" d="M -0.00165221 3.001137 L 79.85252 3.001137 " stroke="#004aad" stroke-width="6" stroke-opacity="1" stroke-miterlimit="4"/><path stroke-linecap="butt" transform="matrix(0.605654, -0.442361, 0.442361, 0.605654, 135.652407, 226.439635)" fill="none" stroke-linejoin="miter" d="M 0.0000956966 3.002079 L 80.177341 2.999718 " stroke="#004aad" stroke-width="6" stroke-opacity="1" stroke-miterlimit="4"/><path stroke-linecap="butt" transform="matrix(0.599946, 0.450072, -0.450072, 0.599946, 186.887659, 190.991663)" fill="none" stroke-linejoin="miter" d="M 0.00290288 3.000269 L 81.62687 3.002943 " stroke="#004aad" stroke-width="6" stroke-opacity="1" stroke-miterlimit="4"/><path stroke-linecap="butt" transform="matrix(0.75, 0, 0, 0.75, 98.217221, 297.508545)" fill="none" stroke-linejoin="miter" d="M 0.00203833 2.999023 L 229.85622 2.999023 " stroke="#004aad" stroke-width="6" stroke-opacity="1" stroke-miterlimit="4"/><path stroke-linecap="round" transform="matrix(0.75, 0, 0, 0.75, 98.217221, 297.508545)" fill="none" stroke-linejoin="round" d="M 217.856219 -6.000977 L 229.85622 2.999023 L 217.856219 11.999024 " stroke="#004aad" stroke-width="6" stroke-opacity="1" stroke-miterlimit="4"/><g fill="#004aad" fill-opacity="1"><g transform="translate(171.04281, 134.058411)"><g><path d="M 13.839844 0.90625 C 20.261719 0.90625 27.125 -1.589844 27.125 -9.492188 C 27.125 -15.78125 22.734375 -18.496094 18.714844 -20.351562 C 14.699219 -22.203125 11.519531 -23.195312 11.519531 -25.226562 C 11.519531 -26.75 13.023438 -27.257812 15.097656 -27.257812 C 17.128906 -27.257812 19.710938 -26.75 21.917969 -26 C 22.46875 -25.800781 22.867188 -26.042969 23.042969 -26.574219 L 24.675781 -32.136719 C 24.851562 -32.730469 24.675781 -33.085938 24.101562 -33.261719 C 21.011719 -34.210938 17.390625 -34.808594 14.789062 -34.808594 C 8.453125 -34.808594 2.339844 -32.003906 2.339844 -24.585938 C 2.339844 -19.289062 5.738281 -16.640625 9.667969 -14.613281 C 13.640625 -12.558594 17.898438 -11.34375 17.898438 -9.09375 C 17.898438 -7.371094 16.222656 -6.730469 13.882812 -6.730469 C 11.433594 -6.730469 8.1875 -7.417969 5.296875 -8.363281 C 4.746094 -8.542969 4.347656 -8.410156 4.148438 -7.8125 L 2.207031 -1.898438 C 2.03125 -1.300781 2.25 -0.949219 2.847656 -0.773438 C 6.953125 0.398438 10.484375 0.90625 13.839844 0.90625 Z M 13.839844 0.90625 "/></g></g></g><g fill="#004aad" fill-opacity="1"><g transform="translate(98.215743, 256.280831)"><g><path d="M 23.070312 1.027344 C 35.609375 1.027344 43.964844 -6.855469 43.964844 -19.21875 C 43.964844 -31.578125 35.609375 -39.460938 23.070312 -39.460938 C 10.558594 -39.460938 2.253906 -31.578125 2.253906 -19.21875 C 2.253906 -6.855469 10.558594 1.027344 23.070312 1.027344 Z M 23.070312 -8.207031 C 16.714844 -8.207031 12.511719 -12.410156 12.511719 -19.21875 C 12.511719 -26.023438 16.714844 -30.230469 23.070312 -30.230469 C 29.476562 -30.230469 33.730469 -26.023438 33.730469 -19.21875 C 33.730469 -12.410156 29.476562 -8.207031 23.070312 -8.207031 Z M 23.070312 -8.207031 "/></g></g></g><g fill="#004aad" fill-opacity="1"><g transform="translate(219.937315, 256.280831)"><g><path d="M 23.070312 1.027344 C 35.609375 1.027344 43.964844 -6.855469 43.964844 -19.21875 C 43.964844 -31.578125 35.609375 -39.460938 23.070312 -39.460938 C 10.558594 -39.460938 2.253906 -31.578125 2.253906 -19.21875 C 2.253906 -6.855469 10.558594 1.027344 23.070312 1.027344 Z M 23.070312 -8.207031 C 16.714844 -8.207031 12.511719 -12.410156 12.511719 -19.21875 C 12.511719 -26.023438 16.714844 -30.230469 23.070312 -30.230469 C 29.476562 -30.230469 33.730469 -26.023438 33.730469 -19.21875 C 33.730469 -12.410156 29.476562 -8.207031 23.070312 -8.207031 Z M 23.070312 -8.207031 "/></g></g></g><g clip-path="url(#afb68fc11f)"><g clip-path="url(#a6e6f110a9)"><g clip-path="url(#6b82253804)"><path fill="#004aad" d="M 64.558594 151.023438 L 92.207031 137.132812 L 106.417969 165.421875 L 78.769531 179.3125 Z M 64.558594 151.023438 " fill-opacity="1" fill-rule="nonzero"/></g></g></g></svg>